<?xml version="1.0" standalone="no"?><!DOCTYPE svg PUBLIC "-//W3C//DTD SVG 1.1//EN" "http://www.w3.org/Graphics/SVG/1.1/DTD/svg11.dtd" ><svg xmlns="http://www.w3.org/2000/svg"><metadata></metadata><defs><font id="bedtime:Version 1.00" horiz-adv-x="2048"><font-face font-family="bedtime" font-weight="400" font-stretch="normal" units-per-em="2048" panose-1="2 0 5 0 0 0 0 0 0 0" ascent="1716" descent="-418" x-height="0" bbox="-342 -418 2069 1716" underline-thickness="150" underline-position="-217" unicode-range="U+0000-fb02" /><missing-glyph horiz-adv-x="1024" d="M100 0 L100 1434 L924 1434 L924 0 L100 0 ZM150 50 L874 50 L874 1384 L150 1384 L150 50 ZM325 1148 Q356 1176 383 1191 Q436 1221 495 1221 Q587 1221 643 1173.5 Q699 1126 699 1046 Q699 997 676 947.5 Q653 898 589 818 Q526 738 490 686 Q454 634 454 587 Q454 549 478 454 L446 454 Q411 551 411 602 Q411 678 492.5 820 Q574 962 574 1037 Q574 1094 541 1127 Q508 1160 450 1160 Q412 1160 381 1143 Q355 1128 325 1103 L325 1148 ZM389 334 L446 392 Q457 402 466 402 Q476 402 488 391 L544 331 Q553 320 553 311 Q553 300 543 289 L487 227 Q473 213 466 213 Q455 213 446 223 L385 294 Q378 303 378 312 Q378 322 389 334 Z" /><glyph glyph-name=".null" unicode="" d="" /><glyph glyph-name="nonmarkingreturn" unicode="" d="" /><glyph glyph-name="nonbreakingspace" unicode="  " d="" /><glyph glyph-name="exclam" unicode="!" d="M313 328 L264 1364 Q264 1410 285 1433 Q306 1456 347 1456 Q389 1456 409.5 1433 Q430 1410 430 1364 L350 328 L313 328 ZM223 167 L305 251 Q320 265 334 265 Q347 265 365 249 L445 163 Q457 147 457 134 Q457 119 443 103 L363 15 Q343 -5 334 -5 Q318 -5 305 9 L217 110 Q207 123 207 136 Q207 151 223 167 Z" /><glyph glyph-name="quotedbl" unicode="&quot;" d="M197 1108 L167 1108 L105 1467 Q101 1490 101 1500 Q101 1537 121.5 1557 Q142 1577 181 1577 Q220 1577 241.5 1557.5 Q263 1538 263 1501 Q263 1493 259 1467 L197 1108 ZM509 1108 L479 1108 L417 1467 Q413 1490 413 1500 Q413 1537 433.5 1557 Q454 1577 493 1577 Q532 1577 553.5 1557.5 Q575 1538 575 1501 Q575 1493 571 1467 L509 1108 Z" /><glyph glyph-name="numbersign" unicode="#" d="M596 859 L511 569 L753 569 L839 859 L596 859 ZM673 1434 L766 1434 L625 957 L867 957 L1009 1434 L1101 1434 L960 957 L1219 957 L1190 860 L931 860 L848 570 L1127 570 L1097 472 L817 472 L677 0 L585 0 L724 472 L484 472 L342 0 L250 0 L390 472 L117 472 L147 570 L418 570 L504 860 L209 860 L238 957 L533 957 L673 1434 Z" /><glyph glyph-name="dollar" unicode="$" d="M577 1552 L577 1450 Q645 1442 718 1415 Q728 1409 737 1409 Q762 1409 778 1454 L828 1454 L931 1172 L882 1172 Q822 1306 714 1351 Q640 1381 577 1390 L577 850 Q818 757 899.5 667 Q981 577 981 403 Q981 206 861.5 103 Q742 0 577 -17 L577 -256 L504 -256 L504 -19 Q316 -16 238 19 Q228 25 219 25 Q194 25 178 -20 L128 -20 L128 311 L177 311 Q227 128 329.5 85 Q432 42 504 42 L504 677 Q290 744 205 830 Q113 921 113 1079 Q113 1245 238 1350 Q343 1438 504 1452 L504 1552 L577 1552 ZM577 655 L577 45 Q702 62 788.5 141 Q875 220 875 360 Q875 476 806 543 Q744 602 577 655 ZM504 873 L504 1393 Q385 1388 305 1321 Q219 1248 219 1139 Q219 1041 274 986 Q326 932 504 873 Z" /><glyph glyph-name="percent" unicode="%" d="M449 1459 Q547 1459 639.5 1410 Q732 1361 784 1270.5 Q836 1180 836 1080 Q836 981 785.5 891.5 Q735 802 642.5 751.5 Q550 701 449 701 Q349 701 256.5 751.5 Q164 802 113 891.5 Q62 981 62 1080 Q62 1180 114 1270.5 Q166 1361 258.5 1410 Q351 1459 449 1459 ZM206 1066 Q219 974 261.5 892.5 Q304 811 368 768 Q425 728 482 728 Q489 728 495 729 Q558 732 610 782 Q662 832 683 918 Q696 972 696 1029 Q696 1061 692 1094 Q680 1187 636 1269.5 Q592 1352 529 1394 Q471 1432 414 1432 L403 1432 Q342 1429 290 1380 Q238 1331 217 1245 Q202 1187 202 1128 Q202 1097 206 1066 ZM297 -29 L1237 1432 L1321 1432 L383 -29 L297 -29 ZM1161 738 Q1258 738 1351 688.5 Q1444 639 1496 548.5 Q1548 458 1548 359 Q1548 259 1497.5 169.5 Q1447 80 1354.5 30 Q1262 -20 1161 -20 Q1060 -20 968 30 Q876 80 825 169.5 Q774 259 774 359 Q774 458 826 548.5 Q878 639 970.5 688.5 Q1063 738 1161 738 ZM918 344 Q931 252 973.5 170.5 Q1016 89 1080 46 Q1139 7 1196 7 L1207 7 Q1270 10 1322 60 Q1374 110 1395 196 Q1408 250 1408 307 Q1408 339 1404 372 Q1392 465 1348 547.5 Q1304 630 1241 672 Q1183 710 1126 710 L1115 710 Q1054 707 1002 658 Q950 609 929 523 Q914 465 914 406 Q914 375 918 344 Z" /><glyph glyph-name="ampersand" unicode="&amp;" d="M1051 196 L497 879 Q379 879 317.5 793 Q256 707 256 589 Q256 498 291.5 407.5 Q327 317 393 243 Q465 160 558 116 Q651 72 752 72 Q840 72 921 105.5 Q1002 139 1051 196 ZM1394 0 Q1338 0 1255 25 Q1172 50 1088 157 Q1021 83 913 33.5 Q805 -16 672 -16 Q443 -16 297.5 134.5 Q152 285 152 520 Q152 681 228 786.5 Q304 892 453 938 Q411 999 390.5 1054 Q370 1109 370 1165 Q370 1270 447 1362 Q524 1454 629 1454 Q697 1454 771 1415 Q780 1409 789 1409 Q812 1409 827 1454 L873 1454 L969 1173 L923 1173 Q868 1306 768 1351 Q683 1388 627 1388 Q562 1388 521 1342.5 Q480 1297 480 1225 Q480 1094 582 958 L1113 288 Q1211 434 1234 532 Q1251 610 1251 662 Q1251 759 1189 759 L1099 759 L1099 809 L1542 809 L1542 759 L1452 759 Q1357 759 1307 532 Q1276 400 1152 240 Q1261 104 1400 104 L1416 104 Q1559 121 1608 232 L1657 231 L1554 0 L1394 0 Z" /><glyph glyph-name="quotesingle" unicode="&#39;" d="M197 1108 L167 1108 L105 1467 Q101 1490 101 1500 Q101 1537 121.5 1557 Q142 1577 181 1577 Q220 1577 241.5 1557.5 Q263 1538 263 1501 Q263 1493 259 1467 L197 1108 Z" /><glyph glyph-name="parenleft" unicode="(" d="M252 601 Q254 878 351.5 1131 Q449 1384 620 1573 L700 1573 Q528 1331 470 1135 Q413 942 413 612 L413 590 Q413 260 470 68 Q528 -128 700 -370 L620 -370 Q449 -181 351.5 71.5 Q254 324 252 601 Z" /><glyph glyph-name="parenright" unicode=")" d="M138 -370 L58 -370 Q230 -128 288 68 Q345 260 345 590 L345 612 Q345 942 288 1135 Q230 1331 58 1573 L138 1573 Q309 1384 406.5 1131 Q504 878 506 601 Q504 324 406.5 71.5 Q309 -181 138 -370 Z" /><glyph glyph-name="asterisk" unicode="*" d="M498 1294 Q494 1365 461 1424 Q424 1490 424 1508 Q424 1540 447.5 1559.5 Q471 1579 510 1579 Q547 1579 571.5 1561 Q596 1543 596 1514 Q596 1493 560 1425 Q527 1364 523 1295 Q589 1320 636 1370 Q687 1425 705 1431 Q716 1434 726 1434 Q744 1434 761 1424 Q787 1407 799 1371 Q805 1352 805 1335 Q805 1320 801 1307 Q791 1277 763 1269 Q757 1267 744 1267 Q719 1267 668 1276 Q640 1281 613 1281 Q572 1281 532 1270 Q576 1215 637 1187 Q705 1155 716 1140 Q729 1122 729 1102 Q729 1093 727 1085 Q719 1055 688 1032 Q659 1010 629 1010 Q628 1010 628 1011 Q597 1011 580 1034 Q568 1051 558 1128 Q548 1195 511 1253 Q473 1195 465 1129 Q456 1054 445 1039 Q426 1014 396 1012 L391 1012 Q363 1012 334 1033 Q304 1054 295 1084 Q291 1094 291 1104 Q291 1121 302 1136 Q315 1153 385 1187 Q446 1216 490 1269 Q449 1280 410 1280 Q383 1280 357 1275 Q303 1264 279 1264 Q270 1264 265 1266 Q235 1275 224 1304 Q218 1317 218 1333 Q218 1350 224 1369 Q235 1404 260 1422 Q277 1434 294 1434 Q303 1434 312 1431 Q332 1425 386 1369 Q433 1320 498 1294 Z" /><glyph glyph-name="plus" unicode="+" d="M437 647 L87 647 L87 787 L437 787 L437 1156 L438 1157 L577 1157 L577 787 L926 787 L927 786 L927 647 L577 647 L577 277 L437 277 L437 647 Z" /><glyph glyph-name="comma" unicode="," d="M238 258 Q282 258 326.5 192.5 Q371 127 371 41 Q371 -68 300 -185.5 Q229 -303 161 -303 L161 -260 Q234 -217 248 -70 Q248 49 119 91 L119 133 L238 258 Z" /><glyph glyph-name="hyphen" unicode="-­" d="M156 409 Q116 409 116 437 L116 520 Q116 549 157 549 L513 549 Q554 549 554 520 L554 437 Q554 409 514 409 L156 409 Z" /><glyph glyph-name="period" unicode="." d="M145 167 L227 251 Q242 265 256 265 Q269 265 287 249 L367 163 Q379 147 379 134 Q379 119 365 103 L285 15 Q265 -5 256 -5 Q240 -5 227 9 L139 110 Q129 123 129 136 Q129 151 145 167 Z" /><glyph glyph-name="slash" unicode="/" d="M93 -50 L13 -50 L554 1434 L634 1434 L93 -50 Z" /><glyph glyph-name="zero" unicode="0" d="M507 1459 Q615 1459 718 1363 Q821 1267 879 1089 Q937 911 937 717 Q937 523 880.5 347 Q824 171 721.5 73 Q619 -25 507 -25 Q395 -25 292.5 73 Q190 171 133.5 347 Q77 523 77 717 Q77 911 134.5 1089 Q192 1267 295 1363 Q398 1459 507 1459 ZM237 689 Q251 509 298.5 349 Q346 189 417 105 Q482 27 546 27 Q552 27 558 28 Q628 35 685.5 132.5 Q743 230 767 398 Q782 505 782 618 Q782 680 777 744 Q763 925 714.5 1087 Q666 1249 595 1331 Q530 1407 467 1407 Q461 1407 456 1406 Q388 1399 330 1303.5 Q272 1208 248 1039 Q232 929 232 814 Q232 752 237 689 Z" /><glyph glyph-name="one" unicode="1" d="M234 0 L234 50 L330 50 Q433 50 433 285 L433 1079 Q433 1208 316 1208 L218 1208 L218 1258 Q510 1321 545 1434 L595 1434 L595 285 Q595 50 698 50 L794 50 L794 0 L234 0 Z" /><glyph glyph-name="two" unicode="2" d="M722 1036 Q722 1184 636 1281 Q550 1378 450 1378 Q280 1378 175 1247 L153 1247 L153 1296 Q192 1346 268 1400 Q344 1454 453 1454 Q636 1454 759.5 1333 Q883 1212 883 1036 Q883 774 256 120 L678 120 Q808 120 887 232 L936 232 L833 0 L114 0 L115 50 Q722 725 722 1036 Z" /><glyph glyph-name="three" unicode="3" d="M435 22 Q586 22 653 138.5 Q720 255 720 419 Q720 523 675.5 624.5 Q631 726 499 773 L499 792 Q580 837 643 912.5 Q706 988 706 1122 Q706 1232 651 1311.5 Q596 1391 485 1404 Q417 1404 361.5 1359 Q306 1314 306 1248 L264 1248 L264 1407 Q264 1427 337.5 1440.5 Q411 1454 493 1454 Q648 1454 750 1370 Q852 1286 852 1121 Q852 1034 791 955 Q730 876 598 816 Q691 802 793 681.5 Q895 561 895 403 Q895 240 751 109 Q607 -22 426 -22 Q274 -22 178.5 17 Q83 56 83 105 L83 205 L132 205 Q132 122 218 72 Q304 22 435 22 Z" /><glyph glyph-name="four" unicode="4" d="M600 438 L600 1124 L176 438 L600 438 ZM737 338 L737 167 Q737 50 809 50 L885 50 L885 0 L443 0 L443 50 L519 50 Q600 50 600 170 L600 338 L43 338 L43 373 L703 1434 L737 1434 L737 438 L756 438 Q889 438 949 570 L998 570 L895 338 L737 338 Z" /><glyph glyph-name="five" unicode="5" d="M229 852 L373 1434 L769 1434 Q872 1434 881 1486 L931 1486 L868 1314 L439 1314 L335 899 Q561 899 723 774.5 Q885 650 885 474 Q885 240 741.5 109 Q598 -22 417 -22 Q265 -22 169 17 Q77 54 77 99 L77 205 L123 205 Q123 117 209 69.5 Q295 22 426 22 Q577 22 643.5 138.5 Q710 255 710 486 Q710 645 600 751 Q490 857 315 857 Q275 857 229 852 Z" /><glyph glyph-name="six" unicode="6" d="M558 11 Q659 11 721 109.5 Q783 208 783 357 Q783 560 683 690.5 Q583 821 467 821 Q376 821 304 719.5 Q232 618 232 469 Q232 316 327.5 163.5 Q423 11 558 11 ZM801 1459 L801 1411 Q624 1399 474.5 1231.5 Q325 1064 241 764 Q337 857 507 857 Q615 857 718 800 Q821 743 879 637.5 Q937 532 937 416 Q937 300 880.5 195.5 Q824 91 736.5 33 Q649 -25 567 -25 Q324 -25 200.5 137.5 Q77 300 77 510 Q77 830 286 1144.5 Q495 1459 801 1459 Z" /><glyph glyph-name="seven" unicode="7" d="M737 1314 L338 1314 Q205 1314 146 1202 L96 1202 L199 1434 L918 1434 L917 1384 Q547 518 547 179 Q547 50 614 50 L731 50 L731 0 L320 0 L320 50 L387 50 Q459 50 459 181 Q478 477 737 1314 Z" /><glyph glyph-name="eight" unicode="8" d="M552 830 Q673 855 708 954 Q735 1029 735 1094 Q735 1114 732 1133 Q720 1214 679.5 1287 Q639 1360 580 1397 Q525 1430 474 1430 L465 1430 Q408 1427 359.5 1384 Q311 1341 291 1265 Q278 1216 278 1165 Q278 1137 282 1108 Q294 1028 333.5 956 Q373 884 552 830 ZM472 785 Q358 764 291 628 Q235 513 235 422 Q235 404 237 387 Q251 283 298.5 190.5 Q346 98 417 50 Q481 6 545 6 L558 6 Q628 10 685.5 66 Q743 122 767 219 Q782 281 782 346 Q782 382 777 419 Q766 531 703.5 631.5 Q641 732 472 785 ZM636 811 Q678 797 718 776 Q821 720 879 617.5 Q937 515 937 403 Q937 291 880.5 189.5 Q824 88 721.5 31.5 Q619 -25 507 -25 Q395 -25 292.5 31.5 Q190 88 133.5 189.5 Q77 291 77 403 Q77 515 134.5 617.5 Q192 720 295 776 Q336 797 377 811 Q353 820 329 832 Q243 876 196 955 Q149 1034 149 1121 Q149 1208 197 1288 Q245 1368 330.5 1411 Q416 1454 507 1454 Q597 1454 683 1411 Q769 1368 817 1288 Q865 1208 865 1121 Q865 1034 818 955 Q771 876 686 832 Q661 819 636 811 Z" /><glyph glyph-name="nine" unicode="9" d="M456 1423 Q355 1423 293.5 1324.5 Q232 1226 232 1077 Q232 874 332 743.5 Q432 613 547 613 Q638 613 710.5 714.5 Q783 816 783 965 Q783 1118 687 1270.5 Q591 1423 456 1423 ZM213 -25 L213 23 Q390 35 539.5 202.5 Q689 370 773 670 Q678 577 507 577 Q399 577 296 634 Q193 691 135 796.5 Q77 902 77 1018 Q77 1134 133.5 1238.5 Q190 1343 277.5 1401 Q365 1459 447 1459 Q690 1459 813.5 1296.5 Q937 1134 937 924 Q937 604 728 289.5 Q519 -25 213 -25 Z" /><glyph glyph-name="colon" unicode=":" d="M145 167 L227 251 Q242 265 256 265 Q269 265 287 249 L367 163 Q379 147 379 134 Q379 119 365 103 L285 15 Q265 -5 256 -5 Q240 -5 227 9 L139 110 Q129 123 129 136 Q129 151 145 167 ZM145 860 L227 944 Q242 958 256 958 Q269 958 287 942 L367 856 Q379 840 379 827 Q379 812 365 796 L285 708 Q265 688 256 688 Q240 688 227 702 L139 803 Q129 816 129 829 Q129 844 145 860 Z" /><glyph glyph-name="semicolon" unicode=";&#x37e;" d="M145 859 L227 943 Q242 957 256 957 Q269 957 287 941 L367 855 Q379 839 379 826 Q379 811 365 795 L285 707 Q265 687 256 687 Q240 687 227 701 L139 802 Q129 815 129 828 Q129 843 145 859 ZM238 258 Q282 258 326.5 192.5 Q371 127 371 41 Q371 -68 300 -185.5 Q229 -303 161 -303 L161 -260 Q234 -217 248 -70 Q248 49 119 91 L119 133 L238 258 Z" /><glyph glyph-name="less" unicode="&lt;" d="M927 1074 L302 715 L927 360 L927 193 L87 674 L87 757 L927 1241 L927 1074 Z" /><glyph glyph-name="equal" unicode="=" d="M87 631 L927 631 L927 491 L87 491 L87 631 ZM87 943 L927 943 L927 803 L87 803 L87 943 Z" /><glyph glyph-name="greater" unicode="&gt;" d="M87 1241 L927 757 L927 674 L87 193 L87 360 L712 715 L87 1074 L87 1241 Z" /><glyph glyph-name="question" unicode="?" d="M132 1330 Q260 1434 374 1434 Q506 1434 586 1366 Q666 1298 666 1184 Q666 1115 633.5 1044 Q601 973 509 858 Q419 745 367.5 670.5 Q316 596 316 528 Q316 465 351 339 L304 339 Q254 477 254 550 Q254 659 370.5 862 Q487 1065 487 1171 Q487 1253 440 1300 Q393 1347 310 1347 Q226 1347 132 1266 L132 1330 ZM223 167 L305 251 Q320 265 334 265 Q347 265 365 249 L445 163 Q457 147 457 134 Q457 119 443 103 L363 15 Q343 -5 334 -5 Q318 -5 305 9 L217 110 Q207 123 207 136 Q207 151 223 167 Z" /><glyph glyph-name="at" unicode="@" d="M972 622 Q889 612 821 542 Q753 472 753 343 Q753 236 817 149 Q881 62 1000 62 Q1097 67 1126 229 L1126 705 Q1072 642 972 622 ZM1360 29 Q1297 30 1259.5 47 Q1222 64 1198 101 Q1169 64 1116 36.5 Q1063 9 983 9 Q839 9 726.5 109.5 Q614 210 614 343 Q615 430 667 509.5 Q719 589 799.5 624.5 Q880 660 973 674 Q1040 690 1083 716.5 Q1126 743 1126 791 Q1124 860 1085 916 Q1046 972 956 972 Q884 972 834.5 913 Q785 854 784 788 L739 788 L739 947 Q739 967 811 987 Q884 1007 989 1007 Q1098 1005 1182.5 942.5 Q1267 880 1267 785 L1267 196 Q1267 79 1361 79 Q1546 114 1628 270.5 Q1710 427 1710 653 Q1690 988 1478 1193 Q1281 1381 998 1381 Q793 1381 605.5 1243.5 Q418 1106 336 888 Q269 710 269 527 Q269 214 398.5 15.5 Q528 -183 703.5 -275 Q879 -367 1022 -367 Q1296 -367 1597 -159 L1597 -234 Q1334 -418 1026 -418 Q786 -418 565 -295.5 Q344 -173 222 46.5 Q100 266 100 508 Q100 750 224 972.5 Q348 1195 569.5 1314.5 Q791 1434 1026 1434 Q1388 1434 1635 1204 Q1882 974 1882 638 Q1882 368 1706 199 Q1531 31 1360 29 Z" /><glyph glyph-name="A" unicode="a" d="" /><glyph glyph-name="B" unicode="b" d="" /><glyph glyph-name="C" unicode="c" d="" /><glyph glyph-name="D" unicode="d" d="" /><glyph glyph-name="E" unicode="e" d="" /><glyph glyph-name="F" unicode="f" d="" /><glyph glyph-name="G" unicode="g" d="" /><glyph glyph-name="H" unicode="h" d="" /><glyph glyph-name="I" unicode="i" d="" /><glyph glyph-name="J" unicode="j" d="" /><glyph glyph-name="K" unicode="k" d="" /><glyph glyph-name="L" unicode="l" d="" /><glyph glyph-name="M" unicode="m" d="" /><glyph glyph-name="N" unicode="n" d="" /><glyph glyph-name="O" unicode="o" d="" /><glyph glyph-name="P" unicode="p" d="" /><glyph glyph-name="Q" unicode="q" d="" /><glyph glyph-name="R" unicode="r" d="" /><glyph glyph-name="S" unicode="s" d="" /><glyph glyph-name="T" unicode="t" d="" /><glyph glyph-name="U" unicode="u" d="" /><glyph glyph-name="V" unicode="v" d="" /><glyph glyph-name="W" unicode="w" d="" /><glyph glyph-name="X" unicode="x" d="" /><glyph glyph-name="Y" unicode="y" d="" /><glyph glyph-name="Z" unicode="z" d="" /><glyph glyph-name="bracketleft" unicode="[" d="" /><glyph glyph-name="backslash" unicode="\" d="" /><glyph glyph-name="bracketright" unicode="]" d="" /><glyph glyph-name="asciicircum" unicode="^" d="" /><glyph glyph-name="underscore" unicode="_" d="M0 -100 L1024 -100 L1024 -160 L0 -160 L0 -100 Z" /><glyph glyph-name="grave" unicode="`" d="M673 1079 L604 1079 L274 1281 Q243 1301 227.5 1321 Q212 1341 212 1363 Q212 1394 232.5 1414 Q253 1434 286 1434 Q306 1434 326.5 1422 Q347 1410 382 1375 L673 1079 Z" /><glyph glyph-name="a" unicode="a" d="" /><glyph glyph-name="b" unicode="b" d="" /><glyph glyph-name="c" unicode="c" d="" /><glyph glyph-name="d" unicode="d" d="" /><glyph glyph-name="e" unicode="e" d="" /><glyph glyph-name="f" unicode="f" d="" /><glyph glyph-name="g" unicode="g" d="" /><glyph glyph-name="h" unicode="h" d="" /><glyph glyph-name="i" unicode="i" d="" /><glyph glyph-name="j" unicode="j" d="" /><glyph glyph-name="k" unicode="k" d="" /><glyph glyph-name="l" unicode="l" d="" /><glyph glyph-name="m" unicode="m" d="" /><glyph glyph-name="n" unicode="n" d="" /><glyph glyph-name="o" unicode="o" d="" /><glyph glyph-name="p" unicode="p" d="" /><glyph glyph-name="q" unicode="q" d="" /><glyph glyph-name="r" unicode="r" d="" /><glyph glyph-name="s" unicode="s" d="" /><glyph glyph-name="t" unicode="t" d="" /><glyph glyph-name="u" unicode="u" d="" /><glyph glyph-name="v" unicode="v" d="" /><glyph glyph-name="w" unicode="w" d="" /><glyph glyph-name="x" unicode="x" d="" /><glyph glyph-name="y" unicode="y" d="" /><glyph glyph-name="z" unicode="z" d="" /><glyph glyph-name="braceleft" unicode="{" d="M240 698 Q412 703 463 769 Q514 835 514 902 L514 1370 Q514 1444 591 1511.5 Q668 1579 776 1579 L884 1579 L884 1529 L794 1529 Q733 1529 687 1495.5 Q641 1462 640 1404 L640 904 Q640 821 579.5 745.5 Q519 670 437 669 L437 667 Q519 666 580 591 Q641 516 641 433 L640 -67 Q641 -125 687 -158.5 Q733 -192 794 -192 L884 -192 L884 -242 L776 -242 Q668 -242 591.5 -174.5 Q515 -107 514 -33 L514 435 Q514 501 463 567 Q412 633 240 638 L240 698 Z" /><glyph glyph-name="bar" unicode="|" d="M427 1577 L587 1577 L587 -418 L427 -418 L427 1577 Z" /><glyph glyph-name="braceright" unicode="}" d="M774 638 Q602 633 551 567 Q500 501 500 435 L500 -33 Q499 -107 422.5 -174.5 Q346 -242 238 -242 L130 -242 L130 -192 L220 -192 Q281 -192 327 -158.5 Q373 -125 374 -67 L373 433 Q373 516 434 591 Q495 666 578 667 L578 669 Q495 670 434.5 745.5 Q374 821 374 904 L374 1404 Q373 1462 327 1495.5 Q281 1529 220 1529 L130 1529 L130 1579 L238 1579 Q346 1579 423 1511.5 Q500 1444 500 1370 L500 902 Q500 835 551 769 Q602 703 774 698 L774 638 Z" /><glyph glyph-name="asciitilde" unicode="~" d="M923 878 L923 722 Q860 650 801 624.5 Q742 599 685 599 Q625 599 507.5 647.5 Q390 696 331 696 Q280 696 223.5 668 Q167 640 94 556 L94 712 Q158 785 217 811 Q276 837 331 837 Q395 837 512.5 787.5 Q630 738 685 738 Q737 738 793.5 766 Q850 794 923 878 Z" /><glyph glyph-name="exclamdown" unicode="¡" d="" /><glyph glyph-name="cent" unicode="¢" d="" /><glyph glyph-name="sterling" unicode="£" d="M748 1347 Q676 1378 588 1378 L586 1378 Q486 1378 396 1277 Q312 1184 312 1036 Q312 1021 313 1006 Q313 871 366 733 L726 733 L726 673 L392 673 Q406 643 423 613 Q458 550 458 475 Q458 314 296 100 L698 100 Q828 100 887 232 L936 231 L833 0 L114 0 L115 50 Q302 288 302 468 Q302 545 268 611 Q251 643 237 673 L76 673 L76 733 L211 733 Q153 876 153 986 Q153 1212 276.5 1333 Q400 1454 583 1454 L587 1454 Q662 1454 772.5 1440 Q883 1426 883 1406 L883 1245 L825 1245 Q820 1306 748 1347 Z" /><glyph glyph-name="currency" unicode="¤" d="M350 560 Q391 520 449 503 Q478 495 507 495 Q536 495 565 503 Q623 520 664 560 Q704 601 721 659 Q730 688 730 717 Q730 746 721 775 Q704 833 664 874 Q623 914 564 931 Q535 939 506 939 Q477 939 448 930 Q390 913 350 874 Q311 834 294 776 Q284 746 284 716 Q284 688 293 660 Q309 601 350 560 ZM240 903 L122 1021 L202 1102 L320 984 Q364 1014 419 1030 Q463 1044 508 1044 Q549 1044 591 1032 Q648 1015 693 984 L811 1102 L891 1021 L774 904 Q805 858 822 802 Q834 760 834 717 Q834 675 822 632 Q805 576 774 530 L891 413 L811 332 L693 450 Q648 418 592 402 Q550 390 507 390 Q465 390 422 402 Q365 418 320 450 L202 332 L122 413 L240 530 Q208 576 192 633 Q180 675 180 717 Q180 761 193 804 Q209 859 240 903 Z" /><glyph glyph-name="yen" unicode="¥" d="M547 225 L545 467 Q545 486 543.5 502 Q542 518 539 534 L55 535 Q41 535 34 541.5 Q27 548 27 561 Q27 574 33.5 580 Q40 586 55 586 L522 586 L401 758 L57 758 Q40 758 33.5 763.5 Q27 769 27 782 Q27 796 33 801.5 Q39 807 55 807 L362 807 Q319 864 254 962 Q123 1159 27 1159 Q20 1159 14 1164.5 Q8 1170 8 1176 Q8 1195 18.5 1203.5 Q29 1212 51 1212 Q78 1212 174 1204 Q270 1196 338 1196 L426 1196 Q459 1196 467 1189.5 Q475 1183 475 1163 Q475 1155 460 1149 Q445 1143 422 1143 Q416 1143 403.5 1145 Q391 1147 385 1147 Q361 1147 347.5 1137.5 Q334 1128 334 1112 Q334 1094 350.5 1060 Q367 1026 397 983 L555 762 Q568 743 588 709 Q629 639 659 639 Q668 639 675.5 644 Q683 649 690 659 L967 1055 Q975 1067 980 1081.5 Q985 1096 985 1106 Q985 1124 975 1133 Q965 1142 938 1147 Q923 1149 897 1151 Q850 1154 850 1176 Q850 1191 858 1198.5 Q866 1206 883 1206 Q886 1206 898 1205 Q954 1198 1006 1198 L1145 1198 Q1175 1198 1210 1199 Q1245 1200 1247 1200 Q1258 1200 1265.5 1195.5 Q1273 1191 1274 1184 Q1274 1156 1236 1150 Q1218 1147 1209 1145 Q1146 1130 1062 1028 Q1055 1019 1050 1013 L881 807 L1204 807 Q1219 807 1228 801 Q1237 795 1237 784 Q1237 769 1231 763.5 Q1225 758 1208 758 L842 758 Q796 701 745.5 645.5 Q695 590 693 586 L1204 586 Q1222 586 1229.5 580.5 Q1237 575 1237 563 Q1237 549 1230 542 Q1223 535 1208 535 L678 535 Q678 524 677 504.5 Q676 485 676 475 L678 260 Q678 146 683.5 110 Q689 74 704 66 Q734 49 811.5 47 Q889 45 889 16 Q889 4 879 -4 Q869 -12 854 -12 Q852 -12 818.5 -8 Q785 -4 754 -4 Q663 -4 545.5 -8 Q428 -12 403 -12 Q372 -12 363 -8 Q354 -4 354 8 Q354 20 362 26.5 Q370 33 399 39 Q408 41 424 44 Q498 60 516 76 Q533 89 540 123 Q547 157 547 225 Z" /><glyph glyph-name="brokenbar" unicode="¦" d="M427 371 L587 371 L587 -418 L427 -418 L427 371 ZM427 1578 L587 1578 L587 789 L427 789 L427 1578 Z" /><glyph glyph-name="section" unicode="§" d="M545 321 Q601 337 642 374 Q715 439 715 540 Q715 545 714 550 L712 550 Q711 564 708 577 Q686 638 595 704 Q536 733 469 733 Q391 733 344 688.5 Q297 644 297 571 Q297 448 545 321 ZM466 -346 Q579 -340 651 -277 Q723 -213 723 -112 Q723 13 407 164 Q284 228 231.5 301 Q179 374 179 478 Q179 626 268 715 Q335 780 438 797 L398 816 Q275 880 222.5 953 Q170 1026 170 1130 Q170 1278 259 1367 Q341 1446 475 1453 Q483 1454 492 1454 L495 1454 Q561 1454 658 1437.5 Q755 1421 755 1396 L755 1202 L704 1202 Q699 1283 624 1334 Q554 1381 475 1385 L460 1385 Q382 1385 335 1340.5 Q288 1296 288 1223 Q288 1091 575 954 Q724 887 779.5 810.5 Q835 734 835 623 Q835 452 734 341 Q687 302 635 277 Q743 221 789 159 Q844 82 844 -28 Q844 -199 743 -311 Q619 -413 466 -416 L466 -415 Q460 -416 453 -416 L450 -416 Q384 -416 287 -399.5 Q190 -383 190 -358 L190 -164 L241 -164 Q246 -245 321 -296 Q389 -341 466 -346 Z" /><glyph glyph-name="dieresis" unicode="¨" d="M223 1289 L294 1361 Q307 1373 319 1373 Q330 1373 346 1359 L415 1286 Q425 1272 425 1261 Q425 1248 413 1234 L344 1159 Q327 1142 319 1142 Q305 1142 294 1154 L218 1240 Q209 1252 209 1263 Q209 1276 223 1289 ZM588 1289 L659 1361 Q672 1373 684 1373 Q695 1373 711 1360 L780 1286 Q790 1272 790 1261 Q790 1248 778 1235 L709 1159 Q692 1142 684 1142 Q670 1142 659 1154 L583 1241 Q574 1252 574 1263 Q574 1276 588 1289 Z" /><glyph glyph-name="copyright" unicode="©" d="M840 1456 Q985 1456 1120 1399.5 Q1255 1343 1359 1239 Q1461 1138 1517.5 1001 Q1574 864 1574 718 Q1574 571 1517.5 436 Q1461 301 1355 196 Q1250 91 1116 36.5 Q982 -18 833 -18 Q687 -18 555 37.5 Q423 93 317 198 Q211 302 155.5 435.5 Q100 569 100 718 Q100 866 155.5 1001 Q211 1136 315 1239 Q417 1343 553.5 1399.5 Q690 1456 840 1456 ZM357 1197 Q262 1101 211 977.5 Q160 854 160 718 Q160 581 211 459 Q262 337 359 240 Q457 144 578 93 Q699 42 834 42 Q971 42 1093.5 92.5 Q1216 143 1313 238 Q1410 336 1462 459.5 Q1514 583 1514 718 Q1514 852 1462 977.5 Q1410 1103 1317 1197 Q1221 1293 1097 1344.5 Q973 1396 839 1396 Q702 1396 577 1344.5 Q452 1293 357 1197 ZM865 223 Q723 223 601 291 Q479 359 415 476 Q351 593 351 719 Q351 845 416.5 963 Q482 1081 604 1147.5 Q726 1214 858 1214 Q896 1214 933 1207.5 Q970 1201 1009 1187 Q1014 1186 1018 1186 Q1037 1186 1044 1216 L1086 1216 L1158 1018 L1114 1018 Q1062 1112 983 1142 Q911 1168 836 1168 L821 1168 Q735 1160 654.5 1097 Q574 1034 533 920 Q500 830 500 736 Q500 711 502 686 Q513 565 571.5 462 Q630 359 721 310 Q793 270 887 268 Q1011 268 1081 324 Q1151 380 1151 450 L1204 450 L1204 350 Q1204 304 1107.5 263.5 Q1011 223 865 223 Z" /><glyph glyph-name="ordfeminine" unicode="ª" d="" /><glyph glyph-name="guillemotleft" unicode="«" d="M174 479 L516 782 L530 782 L530 745 L325 479 L530 213 L530 176 L516 176 L174 479 ZM487 479 L829 782 L843 782 L843 745 L638 479 L843 213 L843 176 L829 176 L487 479 Z" /><glyph glyph-name="logicalnot" unicode="¬" d="M87 767 L927 767 L927 276 L926 275 L828 275 L828 667 L87 667 L87 767 Z" /><glyph glyph-name="registered" unicode="®" d="M751 1099 L751 725 L754 717 Q777 661 810 636 Q839 614 866 614 L872 614 Q903 618 933.5 652.5 Q964 687 980 750 Q993 800 993 853 Q993 866 992 880 Q988 947 964 1004.5 Q940 1062 907.5 1080.5 Q875 1099 844 1099 L751 1099 ZM984 576 L1066 460 Q1166 319 1216 319 L1250 319 L1250 269 L904 269 L904 319 L949 319 Q979 319 979 341 Q979 370 910 455 L835 557 Q793 557 751 599 L751 440 Q751 319 787 319 L840 319 L840 269 L524 269 L524 319 L567 319 Q604 319 604 440 L604 978 Q604 1099 567 1099 L524 1099 L524 1169 L880 1169 Q944 1168 1005 1127 Q1065 1086 1097.5 1013 Q1130 940 1130 861 Q1130 783 1098 710.5 Q1066 638 984 576 ZM840 1456 Q985 1456 1120 1399.5 Q1255 1343 1359 1239 Q1461 1138 1517.5 1001 Q1574 864 1574 718 Q1574 571 1517.5 436 Q1461 301 1355 196 Q1250 91 1116 36.5 Q982 -18 833 -18 Q687 -18 555 37.5 Q423 93 317 198 Q211 302 155.5 435.5 Q100 569 100 718 Q100 866 155.5 1001 Q211 1136 315 1239 Q417 1343 553.5 1399.5 Q690 1456 840 1456 ZM357 1197 Q262 1101 211 977.5 Q160 854 160 718 Q160 581 211 459 Q262 337 359 240 Q457 144 578 93 Q699 42 834 42 Q971 42 1093.5 92.5 Q1216 143 1313 238 Q1410 336 1462 459.5 Q1514 583 1514 718 Q1514 852 1462 977.5 Q1410 1103 1317 1197 Q1221 1293 1097 1344.5 Q973 1396 839 1396 Q702 1396 577 1344.5 Q452 1293 357 1197 Z" /><glyph glyph-name="macron" unicode="¯" d="" /><glyph glyph-name="degree" unicode="°" d="M339 1372 Q253 1372 191.5 1311 Q130 1250 130 1163 Q130 1076 191 1016 Q252 956 339 956 Q426 956 486 1016 Q546 1076 546 1163 Q546 1250 485.5 1311 Q425 1372 339 1372 ZM339 1442 Q454 1442 535 1360.5 Q616 1279 616 1164 Q616 1050 534 968 Q452 886 337 886 Q220 886 140 967 Q60 1048 60 1164 Q60 1280 141.5 1361 Q223 1442 339 1442 Z" /><glyph glyph-name="plusminus" unicode="±" d="" /><glyph glyph-name="twosuperior" unicode="²" d="" /><glyph glyph-name="threesuperior" unicode="³" d="" /><glyph glyph-name="acute" unicode="´" d="M607 1375 Q642 1410 662.5 1422 Q683 1434 703 1434 Q736 1434 756.5 1414 Q777 1394 777 1363 Q777 1341 761.5 1321 Q746 1301 715 1281 L385 1078 L316 1078 L607 1375 Z" /><glyph glyph-name="mu" unicode="µ" d="" /><glyph glyph-name="paragraph" unicode="¶" d="M929 1435 L929 1365 L802 1365 L802 0 L720 0 L720 1365 L554 1365 L554 0 L470 0 L470 738 Q296 746 194.5 840.5 Q93 935 93 1086 Q93 1243 200.5 1339 Q308 1435 486 1435 L929 1435 Z" /><glyph glyph-name="periodcentered" unicode="·&#x2219;" d="M145 740 L227 824 Q242 838 256 838 Q269 838 287 822 L367 736 Q379 720 379 707 Q379 692 365 676 L285 588 Q265 568 256 568 Q240 568 227 582 L139 683 Q129 696 129 709 Q129 724 145 740 Z" /><glyph glyph-name="cedilla" unicode="¸" d="M360 -290 Q445 -342 512 -342 Q578 -342 606.5 -320.5 Q635 -299 635 -254 Q635 -209 586 -190 Q546 -174 484 -174 Q468 -174 450 -176 L498 0 L561 0 L524 -104 Q556 -100 586 -99 Q672 -99 720 -139.5 Q768 -180 768 -253 Q768 -329 709.5 -373.5 Q651 -418 549 -418 Q440 -418 360 -386 L360 -290 Z" /><glyph glyph-name="onesuperior" unicode="¹" d="" /><glyph glyph-name="ordmasculine" unicode="º" d="" /><glyph glyph-name="guillemotright" unicode="»" d="M115 176 L101 176 L101 213 L306 479 L101 745 L101 782 L115 782 L457 479 L115 176 ZM428 176 L414 176 L414 213 L619 479 L414 745 L414 782 L428 782 L770 479 L428 176 Z" /><glyph glyph-name="onequarter" unicode="¼" d="" /><glyph glyph-name="onehalf" unicode="½" d="" /><glyph glyph-name="threequarters" unicode="¾" d="" /><glyph glyph-name="questiondown" unicode="¿" d="" /><glyph glyph-name="Agrave" unicode="à" d="" /><glyph glyph-name="Aacute" unicode="á" d="" /><glyph glyph-name="Acircumflex" unicode="â" d="" /><glyph glyph-name="Atilde" unicode="ã" d="" /><glyph glyph-name="Adieresis" unicode="ä" d="" /><glyph glyph-name="Aring" unicode="å" d="" /><glyph glyph-name="AE" unicode="æ" d="" /><glyph glyph-name="Ccedilla" unicode="ç" d="" /><glyph glyph-name="Egrave" unicode="è" d="" /><glyph glyph-name="Eacute" unicode="é" d="" /><glyph glyph-name="Ecircumflex" unicode="ê" d="" /><glyph glyph-name="Edieresis" unicode="ë" d="" /><glyph glyph-name="Igrave" unicode="ì" d="" /><glyph glyph-name="Iacute" unicode="í" d="" /><glyph glyph-name="Icircumflex" unicode="î" d="" /><glyph glyph-name="Idieresis" unicode="ï" d="" /><glyph glyph-name="Eth" unicode="ð" d="" /><glyph glyph-name="Ntilde" unicode="ñ" d="" /><glyph glyph-name="Ograve" unicode="ò" d="" /><glyph glyph-name="Oacute" unicode="ó" d="" /><glyph glyph-name="Ocircumflex" unicode="ô" d="" /><glyph glyph-name="Otilde" unicode="õ" d="" /><glyph glyph-name="Odieresis" unicode="ö" d="" /><glyph glyph-name="multiply" unicode="×" d="M507 618 L260 371 L161 470 L408 717 L161 965 L260 1063 L507 816 L755 1063 L853 964 L606 717 L853 470 L754 371 L507 618 Z" /><glyph glyph-name="Oslash" unicode="ø" d="" /><glyph glyph-name="Ugrave" unicode="ù" d="" /><glyph glyph-name="Uacute" unicode="ú" d="" /><glyph glyph-name="Ucircumflex" unicode="û" d="" /><glyph glyph-name="Udieresis" unicode="ü" d="" /><glyph glyph-name="Yacute" unicode="ý" d="" /><glyph glyph-name="Thorn" unicode="þ" d="" /><glyph glyph-name="germandbls" unicode="ß" d="" /><glyph glyph-name="agrave" unicode="à" d="" /><glyph glyph-name="aacute" unicode="á" d="" /><glyph glyph-name="acircumflex" unicode="â" d="" /><glyph glyph-name="atilde" unicode="ã" d="" /><glyph glyph-name="adieresis" unicode="ä" d="" /><glyph glyph-name="aring" unicode="å" d="" /><glyph glyph-name="ae" unicode="æ" d="" /><glyph glyph-name="ccedilla" unicode="ç" d="" /><glyph glyph-name="egrave" unicode="è" d="" /><glyph glyph-name="eacute" unicode="é" d="" /><glyph glyph-name="ecircumflex" unicode="ê" d="" /><glyph glyph-name="edieresis" unicode="ë" d="" /><glyph glyph-name="igrave" unicode="ì" d="" /><glyph glyph-name="iacute" unicode="í" d="" /><glyph glyph-name="icircumflex" unicode="î" d="" /><glyph glyph-name="idieresis" unicode="ï" d="" /><glyph glyph-name="eth" unicode="ð" d="" /><glyph glyph-name="ntilde" unicode="ñ" d="" /><glyph glyph-name="ograve" unicode="ò" d="" /><glyph glyph-name="oacute" unicode="ó" d="" /><glyph glyph-name="ocircumflex" unicode="ô" d="" /><glyph glyph-name="otilde" unicode="õ" d="" /><glyph glyph-name="odieresis" unicode="ö" d="" /><glyph glyph-name="divide" unicode="÷" d="M87 647 L87 787 L926 787 L927 786 L927 647 L87 647 ZM398 408 L480 492 Q495 506 509 506 Q522 506 540 490 L620 404 Q632 388 632 375 Q632 360 618 344 L538 256 Q518 236 509 236 Q493 236 480 250 L392 351 Q382 364 382 377 Q382 392 398 408 ZM398 1101 L480 1185 Q495 1199 509 1199 Q522 1199 540 1183 L620 1097 Q632 1081 632 1068 Q632 1053 618 1037 L538 949 Q518 929 509 929 Q493 929 480 943 L392 1044 Q382 1057 382 1070 Q382 1085 398 1101 Z" /><glyph glyph-name="oslash" unicode="ø" d="" /><glyph glyph-name="ugrave" unicode="ù" d="" /><glyph glyph-name="uacute" unicode="ú" d="" /><glyph glyph-name="ucircumflex" unicode="û" d="" /><glyph glyph-name="udieresis" unicode="ü" d="" /><glyph glyph-name="yacute" unicode="ý" d="" /><glyph glyph-name="thorn" unicode="þ" d="" /><glyph glyph-name="ydieresis" unicode="ÿ" d="" /><glyph glyph-name="dotlessi" unicode="&#x131;" d="M328 223 Q328 50 428 50 L474 50 L474 0 L32 0 L32 50 L78 50 Q178 50 178 223 L178 655 Q178 732 67 732 L19 732 L19 776 Q241 845 280 958 L328 958 L328 223 Z" /><glyph glyph-name="circumflex" unicode="&#x2c6;" d="M221 1079 L453 1434 L571 1434 L803 1079 L745 1079 L512 1295 L279 1079 L221 1079 Z" /><glyph glyph-name="caron" unicode="&#x2c7;" d="M221 1434 L279 1434 L512 1220 L745 1434 L803 1434 L571 1078 L453 1078 L221 1434 Z" /><glyph glyph-name="uni02C9" unicode="&#x2c9;" d="M254 1195 L254 1320 L770 1320 L770 1195 L254 1195 Z" /><glyph glyph-name="breve" unicode="&#x2d8;" d="M219 1349 L270 1349 Q287 1276 345 1242 Q403 1208 512 1208 Q621 1208 678 1241.5 Q735 1275 752 1349 L803 1349 Q783 1216 709 1147.5 Q635 1079 512 1079 Q390 1079 315 1148 Q240 1217 219 1349 Z" /><glyph glyph-name="dotaccent" unicode="&#x2d9;" d="M422 1289 L491 1361 Q497 1367 504 1370 Q511 1373 518 1373 Q524 1373 530.5 1370 Q537 1367 543 1361 L614 1285 Q619 1281 621 1275 Q623 1269 623 1261 Q622 1252 620 1246 Q618 1240 612 1234 L541 1158 Q529 1147 525 1144.5 Q521 1142 518 1142 Q508 1142 501.5 1144.5 Q495 1147 491 1153 L416 1240 Q412 1244 410 1249.5 Q408 1255 408 1263 Q408 1269 411 1275.5 Q414 1282 422 1289 Z" /><glyph glyph-name="ring" unicode="&#x2da;" d="M411 1257 Q411 1215 440 1186 Q469 1157 511 1157 Q553 1157 582 1186 Q611 1215 611 1257 Q611 1297 581.5 1326.5 Q552 1356 511 1356 Q470 1356 440.5 1326.5 Q411 1297 411 1257 ZM335 1257 Q335 1332 386 1383 Q437 1434 511 1434 Q587 1434 638.5 1382.5 Q690 1331 690 1257 Q690 1182 638.5 1130.5 Q587 1079 511 1079 Q437 1079 386 1130.5 Q335 1182 335 1257 Z" /><glyph glyph-name="ogonek" unicode="&#x2db;" d="M640 0 Q569 -62 529.5 -119.5 Q490 -177 490 -232 Q490 -279 517 -307 Q544 -335 590 -335 Q630 -335 659.5 -319.5 Q689 -304 709 -271 L737 -287 Q701 -350 646.5 -384 Q592 -418 527 -418 Q457 -418 413 -382.5 Q369 -347 369 -292 Q369 -216 429.5 -135.5 Q490 -55 591 0 L640 0 Z" /><glyph glyph-name="tilde" unicode="&#x2dc;" d="M808 1382 Q788 1279 739.5 1228 Q691 1177 613 1177 L609 1177 Q559 1177 496 1200 Q430 1224 382 1224 Q343 1224 321.5 1203.5 Q300 1183 288 1132 L234 1132 Q253 1238 302 1290.5 Q351 1343 431 1343 Q477 1342 544 1319 Q608 1296 656 1296 L660 1296 Q696 1296 718 1316 Q740 1336 754 1382 L808 1382 Z" /><glyph glyph-name="hungarumlaut" unicode="&#x2dd;" d="M217 1079 L361 1352 Q385 1396 406.5 1415 Q428 1434 453 1434 Q481 1434 501 1414 Q521 1394 521 1367 Q521 1351 510.5 1332 Q500 1313 480 1291 L275 1079 L217 1079 ZM502 1079 L646 1352 Q670 1396 691.5 1415 Q713 1434 738 1434 Q766 1434 786 1414 Q806 1394 806 1367 Q806 1351 795.5 1332 Q785 1313 765 1291 L560 1079 L502 1079 Z" /><glyph glyph-name="endash" unicode="&#x2013;" d="M56 419 L56 539 L1052 539 L1052 419 L56 419 Z" /><glyph glyph-name="emdash" unicode="&#x2014;" d="M0 419 L0 539 L2048 539 L2048 419 L0 419 Z" /><glyph glyph-name="quoteleft" unicode="&#x2018;" d="M319 1016 Q275 1016 230.5 1081.5 Q186 1147 186 1233 Q186 1342 257 1459.5 Q328 1577 396 1577 L396 1534 Q323 1491 309 1344 Q309 1225 438 1183 L438 1141 L319 1016 Z" /><glyph glyph-name="quoteright" unicode="&#x2019;" d="M238 1577 Q282 1577 326.5 1511.5 Q371 1446 371 1360 Q371 1251 300 1133.5 Q229 1016 161 1016 L161 1059 Q234 1102 248 1249 Q248 1368 119 1410 L119 1452 L238 1577 Z" /><glyph glyph-name="quotesinglbase" unicode="&#x201a;" d="M238 281 Q282 281 326.5 215.5 Q371 150 371 64 Q371 -45 300 -162.5 Q229 -280 161 -280 L161 -237 Q234 -194 248 -47 Q248 72 119 114 L119 156 L238 281 Z" /><glyph glyph-name="quotedblleft" unicode="&#x201c;" d="M319 1016 Q275 1016 230.5 1081.5 Q186 1147 186 1233 Q186 1342 257 1459.5 Q328 1577 396 1577 L396 1534 Q323 1491 309 1344 Q309 1225 438 1183 L438 1141 L319 1016 ZM672 1016 Q628 1016 583.5 1081.5 Q539 1147 539 1233 Q539 1342 610 1459.5 Q681 1577 749 1577 L749 1534 Q676 1491 662 1344 Q662 1225 791 1183 L791 1141 L672 1016 Z" /><glyph glyph-name="quotedblright" unicode="&#x201d;" d="M238 1577 Q282 1577 326.5 1511.5 Q371 1446 371 1360 Q371 1251 300 1133.5 Q229 1016 161 1016 L161 1059 Q234 1102 248 1249 Q248 1368 119 1410 L119 1452 L238 1577 ZM591 1577 Q635 1577 679.5 1511.5 Q724 1446 724 1360 Q724 1251 653 1133.5 Q582 1016 514 1016 L514 1059 Q587 1102 601 1249 Q601 1368 472 1410 L472 1452 L591 1577 Z" /><glyph glyph-name="quotedblbase" unicode="&#x201e;" d="M238 281 Q282 281 326.5 215.5 Q371 150 371 64 Q371 -45 300 -162.5 Q229 -280 161 -280 L161 -237 Q234 -194 248 -47 Q248 72 119 114 L119 156 L238 281 ZM591 281 Q635 281 679.5 215.5 Q724 150 724 64 Q724 -45 653 -162.5 Q582 -280 514 -280 L514 -237 Q587 -194 601 -47 Q601 72 472 114 L472 156 L591 281 Z" /><glyph glyph-name="dagger" unicode="&#x2020;" d="M486 1022 Q478 1119 432 1200 Q375 1301 375 1329 Q375 1378 411 1407.5 Q447 1437 507 1437 Q564 1437 601.5 1409.5 Q639 1382 639 1338 Q639 1306 584 1201 Q538 1116 529 1022 Q625 1030 706 1076 Q807 1133 835 1133 Q884 1133 914 1097 Q944 1061 944 1001 Q944 944 916.5 906.5 Q889 869 844 869 Q812 869 708 924 Q623 970 529 981 Q537 805 639 704 Q533 244 527 -270 L489 -270 Q483 244 375 704 Q477 805 486 981 Q390 971 308 926 Q207 869 179 869 Q130 869 100.5 905 Q71 941 71 1001 Q71 1058 98.5 1095.5 Q126 1133 170 1133 Q202 1133 307 1077 Q392 1031 486 1022 Z" /><glyph glyph-name="daggerdbl" unicode="&#x2021;" d="M528 186 Q622 197 707 243 Q811 298 843 298 Q888 298 915.5 260.5 Q943 223 943 166 Q943 106 913 70 Q883 34 834 34 Q806 34 705 91 Q624 137 528 145 Q537 51 583 -34 Q638 -139 638 -171 Q638 -215 600.5 -242.5 Q563 -270 506 -270 Q446 -270 410 -240.5 Q374 -211 374 -162 Q374 -134 431 -33 Q477 48 485 145 Q391 136 306 90 Q201 34 169 34 Q125 34 97.5 71.5 Q70 109 70 166 Q70 226 99.5 262 Q129 298 178 298 Q206 298 307 241 Q389 196 485 186 Q476 412 374 584 Q476 755 485 981 Q389 971 307 926 Q206 869 178 869 Q129 869 99.5 905 Q70 941 70 1001 Q70 1058 97.5 1095.5 Q125 1133 169 1133 Q201 1133 306 1077 Q391 1031 485 1022 Q477 1119 431 1200 Q374 1301 374 1329 Q374 1378 410 1407.5 Q446 1437 506 1437 Q563 1437 600.5 1409.5 Q638 1382 638 1338 Q638 1306 583 1201 Q537 1116 528 1022 Q624 1030 705 1076 Q806 1133 834 1133 Q883 1133 913 1097 Q943 1061 943 1001 Q943 944 915.5 906.5 Q888 869 843 869 Q811 869 707 924 Q622 970 528 981 Q536 755 638 584 Q536 412 528 186 Z" /><glyph glyph-name="bullet" unicode="&#x2022;" d="M216 718 Q216 841 303 927 Q390 1013 513 1013 Q635 1013 721.5 926.5 Q808 840 808 718 Q808 596 720.5 508.5 Q633 421 511 421 Q388 421 302 508 Q216 595 216 718 Z" /><glyph glyph-name="ellipsis" unicode="&#x2026;" d="M145 167 L227 251 Q242 265 256 265 Q269 265 287 249 L367 163 Q379 147 379 134 Q379 119 365 103 L285 15 Q265 -5 256 -5 Q240 -5 227 9 L139 110 Q129 123 129 136 Q129 151 145 167 ZM828 167 L910 251 Q925 265 939 265 Q952 265 970 249 L1050 163 Q1062 147 1062 134 Q1062 119 1048 103 L968 15 Q948 -5 939 -5 Q923 -5 910 9 L822 110 Q812 123 812 136 Q812 151 828 167 ZM1511 167 L1593 251 Q1608 265 1622 265 Q1635 265 1653 249 L1733 163 Q1745 147 1745 134 Q1745 119 1731 103 L1651 15 Q1631 -5 1622 -5 Q1606 -5 1593 9 L1505 110 Q1495 123 1495 136 Q1495 151 1511 167 Z" /><glyph glyph-name="guilsinglleft" unicode="&#x2039;" d="M174 479 L516 782 L530 782 L530 745 L325 479 L530 213 L530 176 L516 176 L174 479 Z" /><glyph glyph-name="guilsinglright" unicode="&#x203a;" d="M115 176 L101 176 L101 213 L306 479 L101 745 L101 782 L115 782 L457 479 L115 176 Z" /><glyph glyph-name="fraction" unicode="&#x2044;&#x2215;" d="M-342 -29 L598 1432 L682 1432 L-256 -29 L-342 -29 Z" /><glyph glyph-name="franc" unicode="&#x20a3;" d="M247 357 L53 357 L53 417 L247 417 L247 1149 Q247 1384 144 1384 L48 1384 L48 1434 L963 1434 L1066 1203 L1017 1203 Q958 1385 827 1385 L511 1384 Q409 1384 409 1149 L409 797 L770 797 Q870 797 870 860 L870 918 L920 918 L920 576 L870 576 L870 636 Q870 698 770 698 L409 698 L409 417 L603 417 L603 357 L409 357 L409 285 Q409 50 511 50 L608 50 L608 0 L48 0 L48 50 L144 50 Q247 50 247 285 L247 357 Z" /><glyph glyph-name="lira" unicode="&#x20a4;" d="M748 1347 Q676 1378 588 1378 L586 1378 Q486 1378 396 1277 Q312 1184 312 1036 Q312 1021 313 1006 Q313 900 346 793 L726 793 L726 733 L366 733 Q378 703 392 673 L744 673 L744 613 L423 613 Q458 550 458 475 Q458 314 296 100 L698 100 Q828 100 887 232 L936 231 L833 0 L114 0 L115 50 Q302 288 302 468 Q302 545 268 611 L266 613 L94 613 L94 673 L237 673 Q223 704 211 733 L76 733 L76 793 L189 793 Q153 900 153 986 Q153 1212 276.5 1333 Q400 1454 587 1454 Q662 1454 772.5 1440 Q883 1426 883 1406 L883 1245 L825 1245 Q820 1306 748 1347 Z" /><glyph glyph-name="peseta" unicode="&#x20a7;" d="M409 1384 L409 722 Q412 713 416 705 Q457 603 524 552 Q581 508 640 508 Q650 508 659 509 Q727 517 786 584 Q845 651 873 761 Q895 848 895 940 Q895 964 894 987 Q887 1103 844.5 1205.5 Q802 1308 736 1350 Q680 1385 624 1385 Q614 1385 603 1384 L409 1384 ZM1496 908 L1317 908 L1317 223 Q1317 142 1351 104 Q1379 73 1432 67 L1361 259 L1410 260 Q1465 130 1524 86 Q1581 42 1651 42 L1658 42 Q1750 42 1809 94 Q1868 147 1868 230 Q1868 332 1609 456 Q1508 508 1465 568 Q1422 628 1422 713 Q1422 834 1495 907 L1496 908 ZM1039 910 Q1032 809 991 716 Q941 602 850 538.5 Q759 475 660 475 Q560 475 469 539 Q436 561 409 590 L409 285 Q409 50 511 50 L608 50 L608 0 L48 0 L48 50 L144 50 Q247 50 247 285 L247 1149 Q247 1384 144 1384 L48 1384 L48 1434 L666 1434 Q758 1432 847 1372 Q938 1310 990 1195 Q1040 1082 1041 958 L1051 958 Q1267 958 1267 1313 L1317 1313 L1317 958 L1576 958 Q1618 977 1686 978 L1688 978 Q1742 978 1821.5 964.5 Q1901 951 1901 931 L1901 772 L1859 772 Q1855 838 1793.5 880 Q1732 922 1660 922 Q1596 922 1557.5 885.5 Q1519 849 1519 789 Q1519 681 1754 569 Q1876 514 1921.5 451.5 Q1967 389 1967 298 Q1967 158 1884 67 Q1782 -17 1656 -19 Q1598 -19 1551 -8 Q1523 -2 1495 -2 Q1477 -2 1459 -5 Q1431 -10 1400 -10 Q1276 -10 1226.5 47 Q1177 104 1169 223 L1168 223 L1168 910 L1039 910 Z" /><glyph glyph-name="Euro" unicode="&#x20ac;" d="M140 372 Q78 507 64 653 L-44 653 L-27 713 L60 713 L60 742 Q60 758 61 773 L-10 773 L7 833 L65 833 Q79 978 141 1114 Q222 1292 367 1388 Q512 1484 665 1484 Q708 1484 752 1476 Q792 1466 834 1447 Q842 1441 850 1441 Q870 1441 884 1486 L925 1486 L1009 1205 L969 1204 Q920 1338 831 1382 Q788 1404 750 1414 L750 1417 Q700 1433 649 1433 Q632 1433 615 1431 Q495 1419 389 1317.5 Q283 1216 232 1044 Q200 940 193 833 L899 833 L882 773 L190 773 Q190 743 192 713 L866 713 L849 653 L197 653 Q214 495 280 355 Q354 198 473 119 Q575 51 689 50 Q875 53 945 141 Q1019 232 1019 326 L1067 326 L1067 183 Q1067 113 956 56 Q851 2 689 0 Q508 0 363.5 98 Q219 196 140 372 Z" /><glyph glyph-name="uni2116" unicode="&#x2116;" d="" /><glyph glyph-name="trademark" unicode="&#x2122;" d="" /><glyph glyph-name="partialdiff" unicode="&#x2202;" d="M232 537 Q232 496 237 458 Q251 336 298.5 228 Q346 120 417 63 Q481 10 545 10 Q551 10 558 11 Q628 16 685.5 81.5 Q743 147 766 261 Q782 334 782 410 Q782 452 777 495 Q763 617 714.5 726.5 Q666 836 595 892 Q530 942 467 942 L456 942 Q388 937 330 872.5 Q272 808 248 694 Q232 610 232 537 ZM937 477 Q937 345 880.5 226 Q824 107 721.5 41 Q619 -25 507 -25 Q395 -25 292.5 41 Q190 107 133.5 226 Q77 345 77 477 Q77 608 135 728 Q193 848 296 913 Q399 978 507 978 Q616 978 719 913 Q748 895 773 872 Q689 1107 539.5 1249 Q390 1391 213 1404 L213 1459 Q519 1459 728 1174 Q937 889 937 477 Z" /><glyph glyph-name="Delta" unicode="&#x2206;" d="M514 1195 L108 123 L909 123 L514 1195 ZM547 1434 L1073 0 L6 0 L547 1434 Z" /><glyph glyph-name="product" unicode="&#x220f;" d="M511 1384 Q409 1384 409 1149 L409 -132 Q409 -367 511 -367 L608 -367 L608 -418 L48 -418 L48 -367 L144 -367 Q247 -367 247 -132 L247 1149 Q247 1384 144 1384 L48 1384 L48 1434 L1467 1434 L1467 1384 L1370 1384 Q1268 1384 1268 1149 L1268 -132 Q1268 -367 1370 -367 L1467 -367 L1467 -417 L907 -417 L907 -367 L1003 -367 Q1106 -367 1106 -132 L1106 1149 Q1106 1384 1003 1384 L511 1384 Z" /><glyph glyph-name="summation" unicode="&#x2211;" d="M1059 548 L271 -366 L906 -366 Q1036 -366 1095 -184 L1144 -184 L1041 -416 L120 -416 L120 -366 Q182 -366 226 -313 L889 468 L226 1327 Q182 1384 120 1384 L120 1434 L1041 1434 L1144 1202 L1095 1202 Q1036 1384 906 1384 L421 1384 L1059 548 Z" /><glyph glyph-name="minus" unicode="&#x2212;" d="M87 647 L87 787 L926 787 L927 786 L927 647 L87 647 Z" /><glyph glyph-name="radical" unicode="&#x221a;" d="M181 0 L17 359 L91 394 L176 209 L904 1679 L1054 1679 L1054 1619 L982 1619 L181 0 Z" /><glyph glyph-name="infinity" unicode="&#x221e;" d="M439 755 Q424 858 365 888 Q319 910 281 910 Q269 910 258 908 Q209 898 165.5 863.5 Q122 829 100 779 Q80 733 80 689 L80 681 Q82 633 107.5 592 Q133 551 179 534 Q208 523 240 523 Q256 523 273 526 Q320 536 363.5 569.5 Q407 603 439 755 ZM466 687 Q478 591 560 534 Q629 486 683 486 Q694 486 704 488 Q766 500 821.5 540 Q877 580 906 641 Q932 695 932 749 L932 760 Q930 820 896.5 868.5 Q863 917 805 937 Q768 950 729 950 Q707 950 685 946 Q618 937 558 884 Q498 831 466 687 ZM450 827 Q459 862 471 896 Q505 984 566 1033 Q627 1082 694 1082 Q761 1082 822 1034 Q883 986 917 899 Q951 812 951 717 Q951 622 917 535 Q883 448 822 400 Q761 352 694 352 Q627 352 566 401 Q505 450 471 537 Q459 572 450 607 Q445 586 438 566 Q411 493 364 453 Q317 413 265 413 Q213 413 165 454 Q117 495 91.5 567.5 Q66 640 66 717 Q66 793 91.5 866 Q117 939 165 980 Q213 1021 265 1021 Q317 1021 364 981 Q411 941 438 869 Q445 848 450 827 Z" /><glyph glyph-name="integral" unicode="&#x222b;" d="M-12 -281 Q-72 -281 -72 -252 L-72 -93 L-36 -93 Q-35 -136 -1.5 -157.5 Q32 -179 62 -179 L63 -179 Q145 -179 178 -17 Q210 145 218 299 L288 1033 L296 1095 Q323 1333 431 1524.5 Q539 1716 665 1716 Q725 1716 725 1687 L725 1528 L689 1528 Q688 1571 654 1592.5 Q620 1614 591 1614 Q520 1614 475 1458.5 Q430 1303 426 1095 L353 328 Q333 97 222.5 -92 Q112 -281 -12 -281 Z" /><glyph glyph-name="approxequal" unicode="&#x2248;" d="M923 1053 L923 897 Q860 825 801 799.5 Q742 774 685 774 Q625 774 507.5 822.5 Q390 871 331 871 Q280 871 223.5 843 Q167 815 94 731 L94 887 Q158 960 217 986 Q276 1012 331 1012 Q395 1012 512.5 962.5 Q630 913 685 913 Q737 913 793.5 941 Q850 969 923 1053 ZM923 705 L923 549 Q860 477 801 451.5 Q742 426 685 426 Q625 426 507.5 474.5 Q390 523 331 523 Q280 523 223.5 495 Q167 467 94 383 L94 539 Q158 612 217 638 Q276 664 331 664 Q395 664 512.5 614.5 Q630 565 685 565 Q737 565 793.5 593 Q850 621 923 705 Z" /><glyph glyph-name="lessequal" unicode="&#x2264;" d="M927 1074 L302 715 L927 360 L927 193 L87 674 L87 757 L927 1241 L927 1074 ZM87 1 L87 141 L926 141 L927 140 L927 1 L87 1 Z" /><glyph glyph-name="greaterequal" unicode="&#x2265;" d="M87 1241 L927 757 L927 674 L87 193 L87 360 L712 715 L87 1074 L87 1241 ZM87 2 L87 142 L926 142 L927 141 L927 2 L87 2 Z" /><glyph glyph-name="fi" unicode="&#xf001;&#xfb01;" d="M1082 1452 L1082 680 L1318 904 Q1338 923 1367 923 Q1397 923 1417 904 L1450 872 Q1469 854 1459 823 Q1451 795 1428 773 L1088 433 Q1073 385 1022 385 L975 385 Q926 385 909 430 L581 773 Q524 827 559 860 L593 892 Q614 912 643 912 Q673 912 694 892 L930 676 L930 1452 L263 1452 Q181 1452 107 1378 Q33 1303 33 1222 L33 226 Q33 146 107 71 Q181 -3 263 -3 L1795 -3 Q1877 -3 1952 71 Q2025 146 2025 226 L2025 1222 Q2025 1303 1952 1378 Q1877 1452 1795 1452 L1082 1452 Z" /><glyph glyph-name="fl" unicode="&#xf002;&#xfb02;" d="M897 109 Q671 98 511 198 Q351 297 351 448 Q351 598 511 707 Q669 815 897 826 Q1128 836 1284 750 Q1444 662 1444 514 Q1444 361 1284 241 Q1122 119 897 109 ZM1541 764 Q1496 773 1495 796 Q1495 807 1504 817 Q1521 846 1528 885 Q1542 964 1490 1016 Q1425 1082 1272 1049 Q1196 1033 1132 1003 Q1068 983 1062 1008 Q1061 1014 1075 1091 Q1075 1187 1028 1231 Q957 1297 787 1240 Q530 1152 308 843 Q212 715 184 584 Q170 519 175 479 Q201 243 431 122 Q602 32 875 10 Q1121 -9 1362 87 Q1626 192 1714 380 Q1795 551 1701 666 Q1637 745 1541 764 ZM939 446 Q925 435 910 436 Q894 438 886 451 Q878 464 882 481 Q885 498 899 508 Q916 521 932 519 Q947 517 955 504 Q963 491 958 474 Q954 457 939 446 ZM760 293 Q718 288 688 310 Q658 331 658 367 Q658 403 685 434 Q714 465 755 469 Q803 474 833 450 Q863 427 863 391 Q863 355 833 327 Q803 298 760 293 ZM837 693 Q647 670 589 519 Q559 444 568 372 Q567 350 577 322 Q597 265 650 236 Q777 167 908 196 Q1029 223 1103 318 Q1138 363 1143 432 Q1148 502 1119 563 Q1086 631 1020 666 Q944 705 837 693 ZM1689 887 Q1707 887 1721 899 Q1735 911 1737 929 Q1738 932 1738 934 Q1761 1143 1615 1198 Q1542 1225 1465 1211 Q1444 1211 1429 1196 Q1415 1181 1415 1160 Q1415 1140 1429 1125 Q1444 1111 1465 1111 Q1604 1142 1635 1042 Q1651 993 1638 937 Q1638 916 1653 902 Q1668 887 1689 887 ZM1652 1470 Q1546 1495 1404 1467 Q1402 1467 1400 1466 Q1398 1465 1397 1464 Q1396 1464 1395 1463 Q1342 1448 1342 1393 Q1342 1363 1363 1342 Q1385 1320 1415 1320 Q1454 1326 1480 1336 Q1523 1353 1628 1321 Q1769 1277 1839 1158 Q1895 1033 1862 918 Q1847 883 1847 848 Q1847 819 1869 800 Q1889 783 1920 783 Q1950 783 1964 792 Q1984 805 1989 844 L1990 844 Q2069 1110 1938 1288 Q1835 1427 1652 1470 Z" /><glyph glyph-name="uniF003" unicode="&#xf003;" d="M520 1106 Q480 1106 450 1130 Q417 1155 417 1192 Q417 1229 450 1254 Q480 1277 520 1277 Q559 1277 582 1254 Q605 1230 605 1192 Q605 1153 582 1130 Q558 1106 520 1106 ZM998 1277 Q1036 1277 1060 1254 Q1083 1230 1083 1192 Q1083 1153 1060 1130 Q1036 1106 998 1106 Q958 1106 927 1130 Q895 1155 895 1192 Q895 1229 927 1254 Q957 1277 998 1277 ZM1368 1029 Q1398 1029 1434 1025 Q1390 1231 1193 1368 Q997 1504 746 1504 Q463 1504 264 1336 Q63 1167 63 924 Q63 654 336 464 L268 258 L507 378 Q680 344 746 344 Q775 344 809 346 Q788 418 788 489 Q788 713 957 871 Q1126 1029 1368 1029 ZM1595 646 Q1570 646 1548 667 Q1527 688 1527 714 Q1527 739 1548 761 Q1570 782 1595 782 Q1632 782 1657 761 Q1680 741 1680 714 Q1680 687 1657 667 Q1632 646 1595 646 ZM1220 646 Q1194 646 1173 667 Q1151 688 1151 714 Q1151 739 1173 761 Q1194 782 1220 782 Q1257 782 1282 761 Q1305 741 1305 714 Q1305 687 1282 667 Q1257 646 1220 646 ZM1991 498 Q1991 700 1816 847 Q1644 993 1412 993 Q1169 993 1000 847 Q831 703 831 498 Q831 292 1000 147 Q1169 2 1412 2 Q1480 2 1616 37 L1803 -66 L1752 105 Q1991 284 1991 498 Z" /><glyph glyph-name="uniF004" unicode="&#xf004;" d="" /><glyph glyph-name="uniF005" unicode="&#xf005;" d="" /><glyph glyph-name="uniF006" unicode="&#xf006;" d="M925 785 Q912 553 820 298 Q914 187 899 96 Q953 133 1006 209 Q1114 361 1114 558 Q1114 673 1019 741 Q972 775 925 785 ZM561 653 Q512 653 478 687 Q444 721 444 769 Q444 817 478 851 Q512 885 561 885 Q610 885 644 851 Q679 817 679 769 Q679 721 644 687 Q610 653 561 653 ZM273 977 Q251 878 251 775 Q251 608 377 207 L746 207 Q872 611 872 775 Q872 878 850 977 L273 977 ZM199 785 Q151 775 104 741 Q9 673 9 558 Q9 361 117 209 Q170 133 224 96 Q220 119 228 155 Q244 229 303 298 Q211 553 199 785 ZM582 1562 L536 1562 L536 1404 Q352 1269 283 1020 L840 1020 Q769 1273 582 1408 L582 1562 ZM478 45 L511 111 L560 -16 L601 111 L639 73 L693 164 L429 164 L478 45 Z" /><glyph glyph-name="uniF007" unicode="&#xf007;" d="M1173 191 Q965 52 790 74 L790 582 Q681 585 626 679 L196 419 Q169 449 142 511 Q89 633 89 789 Q89 945 145 1062 Q173 1121 201 1149 L625 877 Q681 972 790 975 L790 1476 Q834 1482 904 1470 Q1043 1447 1173 1360 Q1380 1221 1422 1073 L973 861 Q991 821 991 779 Q991 733 969 689 L1413 473 Q1404 437 1370 384 Q1302 277 1173 191 ZM788 1555 Q466 1555 239 1328 Q11 1100 11 779 Q11 457 239 230 Q466 2 788 2 Q1109 2 1337 230 Q1564 457 1564 779 Q1564 1100 1337 1328 Q1109 1555 788 1555 ZM795 891 Q748 891 715 858 Q682 825 682 779 Q682 732 715 699 Q748 666 795 666 Q841 666 874 699 Q907 732 907 779 Q907 825 874 858 Q841 891 795 891 Z" /><glyph glyph-name="uniF008" unicode="&#xf008;" d="M236 201 L505 290 L326 469 L236 201 ZM1049 290 L1318 201 L1228 469 L1049 290 ZM777 -22 L904 231 L650 231 L777 -22 ZM1287 615 L1540 741 L1287 868 L1287 615 ZM263 872 L10 745 L263 618 L263 872 ZM505 1196 L236 1286 L326 1017 L505 1196 ZM1318 1286 L1049 1196 L1228 1017 L1318 1286 ZM777 1508 L650 1255 L904 1255 L777 1508 ZM327 743 Q327 557 459 425 Q591 293 777 293 Q963 293 1095 425 Q1227 557 1227 743 Q1227 929 1095 1061 Q963 1193 777 1193 Q591 1193 459 1061 Q327 929 327 743 Z" /><glyph glyph-name="uniF009" unicode="&#xf009;" d="M753 248 Q560 248 438 367 Q316 486 293 696 L353 696 Q427 371 753 371 Q1078 371 1152 696 L1215 696 Q1192 486 1069 367 Q946 248 753 248 ZM506 1093 Q545 1093 572 1056 Q600 1020 600 968 Q600 916 572 879 Q545 842 506 842 Q467 842 439 879 Q412 916 412 968 Q412 1020 439 1056 Q467 1093 506 1093 ZM1012 1094 Q1051 1094 1078 1057 Q1106 1020 1106 969 Q1106 917 1078 880 Q1051 843 1012 843 Q973 843 945 880 Q918 917 918 969 Q918 1020 945 1057 Q973 1094 1012 1094 ZM761 1458 Q450 1458 230 1238 Q9 1018 9 706 Q9 395 230 175 Q450 -46 761 -46 Q1073 -46 1293 175 Q1513 395 1513 706 Q1513 1018 1293 1238 Q1073 1458 761 1458 Z" /></font>
</defs>
</svg>
