<?xml version="1.0" encoding="utf-8"?>
<!-- Generator: Adobe Illustrator 16.0.0, SVG Export Plug-In . SVG Version: 6.00 Build 0)  -->
<!DOCTYPE svg PUBLIC "-//W3C//DTD SVG 1.1//EN" "http://www.w3.org/Graphics/SVG/1.1/DTD/svg11.dtd">
<svg version="1.1" id="download" xmlns="http://www.w3.org/2000/svg" xmlns:xlink="http://www.w3.org/1999/xlink" x="0px" y="0px"
	 width="100px" height="73.077px" viewBox="0 0 100 73.077" style="enable-background:new 0 0 100 73.077;" xml:space="preserve">
<style type="text/css">
<![CDATA[
	.st0{fill:#FECC02;}
	.st0:hover{
		fill:red;
	}
]]>
</style>
<g id="download1">
	<g>
		<path class="st0" d="M88.461,0c0,0-7.068,0-20.957,0H52.637v38.743L64.49,27.539c1.375-1.312,3.605-1.312,4.977,0l1.656,1.577
			c1.375,1.307,0.248,3.677-1.123,4.984L52.949,51.159c-0.428,1.391-1.723,2.432-3.323,2.432H47.28
			c-1.545,0-2.818-0.967-3.292-2.283L27.5,34.101c-1.399-1.33-2.5-3.031-1.101-4.364l1.69-1.608c1.398-1.333,3.669-1.333,5.068,0
			l11.843,10.848V0H35C20.061,0,11.538,0,11.538,0C6.016,0,0,6.155,0,11.538v50c0,5.383,6.016,11.539,11.538,11.539h76.923
			c5.521,0,11.539-6.156,11.539-11.539v-50C100,6.155,93.982,0,88.461,0z"/>
	</g>
</g>
</svg>
