<?xml version="1.0" encoding="utf-8"?>
<!-- Generator: Adobe Illustrator 16.0.0, SVG Export Plug-In . SVG Version: 6.00 Build 0)  -->
<!DOCTYPE svg PUBLIC "-//W3C//DTD SVG 1.1//EN" "http://www.w3.org/Graphics/SVG/1.1/DTD/svg11.dtd">
<svg version="1.1" id="wb" xmlns="http://www.w3.org/2000/svg" xmlns:xlink="http://www.w3.org/1999/xlink" x="0px" y="0px"
	 width="100.001px" height="79.9px" viewBox="0 0 100.001 79.9" style="enable-background:new 0 0 100.001 79.9;"
	 xml:space="preserve">
<style type="text/css">
<![CDATA[
	.st0{fill:#FECC02;}
	.st0:hover{
		fill:red;
	}
]]>
</style>
<g>
	<path class="st0" d="M73.819,38.904c-3.85-0.748-1.979-2.82-1.979-2.82s3.771-6.21-0.745-10.726
		c-5.592-5.592-19.188,0.712-19.188,0.712c-5.191,1.611-3.815-0.735-3.082-4.729c0-4.705-1.611-12.667-15.441-7.964
		C19.568,18.106,7.706,34.673,7.706,34.673c-8.25,11.009-7.157,19.516-7.157,19.516c2.061,18.783,22.019,23.94,37.541,25.162
		c16.332,1.278,38.373-5.631,45.057-19.828C89.831,45.303,77.684,39.675,73.819,38.904z M39.298,74.055
		C23.086,74.812,9.979,66.681,9.979,55.862c0-10.832,13.106-19.518,29.319-20.265c16.223-0.747,29.355,5.938,29.355,16.745
		C68.653,63.16,55.521,73.315,39.298,74.055z"/>
	<path class="st0" d="M36.063,42.731C19.757,44.64,21.642,59.913,21.642,59.913s-0.167,4.838,4.372,7.301
		c9.542,5.166,19.365,2.038,24.33-4.371C55.309,56.431,52.394,40.836,36.063,42.731z M31.951,64.168
		c-3.045,0.359-5.498-1.398-5.498-3.943c0-2.539,2.179-5.193,5.226-5.51c3.498-0.334,5.773,1.681,5.773,4.229
		C37.452,61.479,34.984,63.822,31.951,64.168z M41.563,55.981c-1.032,0.77-2.301,0.662-2.845-0.26
		c-0.568-0.903-0.355-2.351,0.688-3.107c1.209-0.899,2.465-0.639,3.009,0.26C42.961,53.798,42.571,55.186,41.563,55.981z"/>
	<path class="st0" d="M81.758,32.291c1.314,0,2.433-0.972,2.622-2.24c0.024-0.094,0.036-0.177,0.036-0.284
		c1.987-17.906-14.674-14.824-14.674-14.824c-1.479,0-2.666,1.197-2.666,2.689c0,1.469,1.187,2.666,2.666,2.666
		c11.969-2.643,9.329,9.327,9.329,9.327C79.071,31.106,80.276,32.291,81.758,32.291z"/>
	<path class="st0" d="M79.817,1.037c-5.761-1.349-11.688-0.187-13.344,0.132c-0.131,0.012-0.25,0.133-0.368,0.157
		c-0.059,0.012-0.095,0.071-0.095,0.071c-1.636,0.463-2.834,1.978-2.834,3.768c0,2.133,1.731,3.888,3.888,3.888
		c0,0,2.099-0.282,3.521-0.837c1.408-0.568,13.342-0.423,19.269,9.531c3.233,7.264,1.42,12.125,1.195,12.906
		c0,0-0.77,1.888-0.77,3.746c0,2.145,1.73,3.493,3.873,3.493c1.791,0,3.297-0.244,3.737-3.274h0.023
		C104.275,13.408,90.127,3.443,79.817,1.037z"/>
</g>
</svg>
