<?xml version="1.0" encoding="utf-8"?>
<!-- Generator: Adobe Illustrator 16.0.0, SVG Export Plug-In . SVG Version: 6.00 Build 0)  -->
<!DOCTYPE svg PUBLIC "-//W3C//DTD SVG 1.1//EN" "http://www.w3.org/Graphics/SVG/1.1/DTD/svg11.dtd">
<svg version="1.1" id="wx" xmlns="http://www.w3.org/2000/svg" xmlns:xlink="http://www.w3.org/1999/xlink" x="0px" y="0px"
	 width="100px" height="82px" viewBox="0 0 100 82" style="enable-background:new 0 0 100 82;" xml:space="preserve">
<style type="text/css">
<![CDATA[
	.st0{fill-rule:evenodd;clip-rule:evenodd;fill:#FECC02;}
	.st0:hover{
		fill:red;
	}
]]>
</style>
<g>
	<path class="st0" d="M67.696,24.917c1.147,0,2.283,0.084,3.409,0.21C68.042,10.867,52.797,0.271,35.394,0.271
		C15.938,0.271,0,13.533,0,30.373c0,9.72,5.302,17.703,14.163,23.893l-3.54,10.647l12.373-6.205c4.427,0.878,7.979,1.78,12.397,1.78
		c1.11,0,2.212-0.055,3.304-0.141c-0.691-2.368-1.092-4.846-1.092-7.416C37.605,37.467,50.884,24.917,67.696,24.917z M48.666,15.321
		c2.665,0,4.431,1.753,4.431,4.417c0,2.653-1.766,4.43-4.431,4.43c-2.653,0-5.314-1.777-5.314-4.43
		C43.352,17.074,46.013,15.321,48.666,15.321z M23.896,24.168c-2.653,0-5.33-1.777-5.33-4.43c0-2.664,2.677-4.417,5.33-4.417
		s4.418,1.753,4.418,4.417C28.313,22.391,26.548,24.168,23.896,24.168z"/>
	<path class="st0" d="M100,52.503c0-14.149-14.16-25.684-30.063-25.684c-16.84,0-30.104,11.535-30.104,25.684
		c0,14.179,13.264,25.688,30.104,25.688c3.524,0,7.08-0.891,10.62-1.777l9.708,5.314l-2.662-8.843
		C94.707,67.557,100,60.488,100,52.503z M60.176,48.076c-1.762,0-3.539-1.754-3.539-3.54c0-1.766,1.777-3.542,3.539-3.542
		c2.678,0,4.431,1.776,4.431,3.542C64.606,46.322,62.854,48.076,60.176,48.076z M79.645,48.076c-1.75,0-3.516-1.754-3.516-3.54
		c0-1.766,1.766-3.542,3.516-3.542c2.652,0,4.431,1.776,4.431,3.542C84.075,46.322,82.297,48.076,79.645,48.076z"/>
</g>
</svg>
